<svg width="1000" height="1000" viewBox="0 0 1000 1000" fill="none" xmlns="http://www.w3.org/2000/svg">
<rect width="1000" height="1000" rx="500" fill="#111827"/>
<path d="M499.69 849.381C692.819 849.381 849.381 692.819 849.381 499.69C849.381 306.562 692.819 150 499.69 150C306.562 150 150 306.562 150 499.69C150 692.819 306.562 849.381 499.69 849.381Z" stroke="#FF3C7D" stroke-width="55" stroke-miterlimit="10"/>
<path d="M563.817 641.335C563.817 667.913 557.896 687.628 546.052 700.479C534.206 713.331 518.897 719.758 500.124 719.761C481.059 719.761 465.533 713.261 453.545 700.263C441.556 687.264 435.562 667.621 435.563 641.335V465.76L563.817 641.335Z" fill="#FF3C7D" stroke="#FF3C7D" stroke-width="15" stroke-linecap="round" stroke-linejoin="round"/>
<path d="M662.285 329.926H337.095C313.263 329.926 293.942 349.246 293.942 373.079V373.079C293.942 396.912 313.263 416.232 337.095 416.232H662.285C686.118 416.232 705.438 396.912 705.438 373.079C705.438 349.246 686.118 329.926 662.285 329.926Z" fill="#FF3C7D" stroke="#FF3C7D" stroke-width="15" stroke-linecap="round" stroke-linejoin="round"/>
</svg>
